<svg version="1.1" id="Layer_1" xmlns="http://www.w3.org/2000/svg" xmlns:xlink="http://www.w3.org/1999/xlink" x="0px" y="0px"
	 width="100%" viewBox="0 0 374 172" enable-background="new 0 0 374 172" xml:space="preserve">
<path fill="#FEFEFF" opacity="1.000000" stroke="none" 
	d="
M233.000000,173.000000 
	C155.333344,173.000000 78.166687,173.000000 1.000021,173.000000 
	C1.000014,115.666679 1.000014,58.333366 1.000007,1.000036 
	C125.666634,1.000024 250.333267,1.000024 374.999939,1.000012 
	C374.999939,58.333298 374.999939,115.666595 374.999969,172.999939 
	C327.833344,173.000000 280.666656,173.000000 233.000000,173.000000 
M126.988159,100.024170 
	C126.988159,100.024170 127.041313,100.012741 126.696861,99.500175 
	C126.123817,99.289246 125.550781,99.078323 124.457291,98.312294 
	C117.640755,96.157616 110.924362,96.346001 103.535561,99.068726 
	C101.998314,100.112839 99.520126,100.864967 99.089577,102.252487 
	C97.386986,107.739410 96.326057,113.425446 95.027191,119.037643 
	C95.470650,119.140526 95.914116,119.243408 96.357582,119.346298 
	C94.890594,119.935394 93.423615,120.524490 91.046928,121.002701 
	C87.371132,120.945427 83.695343,120.888153 80.011894,120.008926 
	C81.135620,119.007103 82.137695,117.386520 83.409225,117.136559 
	C85.810753,116.664444 88.379791,117.135330 90.856529,116.934563 
	C95.018051,116.597206 94.075943,113.290146 93.870697,110.851639 
	C93.675774,108.535904 92.463486,106.965515 89.057625,109.008377 
	C86.044632,108.948067 83.031639,108.887764 80.005646,108.052704 
	C80.009796,106.761360 80.013947,105.470024 80.914078,104.050713 
	C83.930527,104.002350 86.946983,103.953987 90.369003,104.497269 
	C91.841698,104.714775 93.314392,104.932281 94.787086,105.149780 
	C95.130531,102.754189 95.557007,100.363098 95.687416,97.955963 
	C95.700279,97.718437 93.900223,97.382690 92.017204,96.984177 
	C83.727867,97.022667 75.438530,97.061150 66.329666,97.181259 
	C66.057541,97.355690 65.549553,97.526810 65.547050,97.705025 
	C65.406334,107.731453 65.305984,117.758461 65.282013,127.785614 
	C65.281937,127.818398 66.450417,127.853981 67.561432,127.903732 
	C67.561432,127.903732 68.044678,127.831917 68.005661,127.985306 
	C68.005661,127.985306 67.990501,128.142838 68.380363,128.578293 
	C69.245651,128.452652 70.110939,128.327026 71.723549,128.087143 
	C72.476311,128.126740 73.229080,128.166321 74.648727,128.698532 
	C79.922119,128.798615 85.203735,128.751343 90.466324,129.045029 
	C94.737289,129.283401 97.871338,128.680298 96.003082,121.681679 
	C98.778984,123.876167 100.105141,125.292023 101.733673,126.093323 
	C102.990021,126.711494 104.625877,126.558357 106.920876,126.867691 
	C112.298912,126.869766 117.676941,126.871834 123.563736,126.925911 
	C123.799408,126.714455 124.035080,126.502998 124.151276,126.255661 
	C124.151276,126.255661 124.203094,126.369141 124.864601,126.332993 
	C125.591400,125.889282 126.318192,125.445572 126.997124,124.988167 
	C126.997124,124.988167 126.992577,125.037750 127.606888,124.927689 
	C128.092697,124.298126 128.578491,123.668564 129.002350,123.002113 
	C129.002350,123.002113 129.044861,123.060349 129.697571,122.881927 
	C130.792664,120.916862 131.887756,118.951797 133.469894,117.293381 
	C133.969528,117.856728 134.469147,118.420082 134.998962,119.873329 
	C135.948486,122.484138 132.925461,126.109596 137.546585,127.948097 
	C137.546585,127.948097 138.030670,127.840981 138.670639,127.971146 
	C139.101593,127.927460 139.532532,127.883774 140.793961,128.000488 
	C142.201233,127.969238 143.608521,127.937988 145.833817,128.041000 
	C146.468353,127.153969 147.600845,126.291656 147.646317,125.375381 
	C147.797607,122.327660 147.558380,119.260559 148.242844,116.438362 
	C150.027405,118.324875 152.086014,120.022736 153.540878,122.136200 
	C156.816666,126.894829 160.949875,129.235321 167.687180,127.985031 
	C168.141693,127.604042 168.989410,127.226845 168.993134,126.841492 
	C169.083282,117.511292 169.123474,108.179703 169.003784,98.850525 
	C168.996292,98.267471 167.608978,97.702118 166.000824,96.989708 
	C163.621445,96.989708 161.242065,96.989708 158.413406,96.989708 
	C158.413406,100.619293 158.561646,103.552849 158.317581,106.453400 
	C158.249741,107.259850 157.019714,107.968521 156.314545,108.635490 
	C156.314545,108.635490 156.295242,108.550705 156.275986,108.205322 
	C156.275986,108.205322 155.970230,108.043526 155.754517,107.404564 
	C154.516571,105.892479 153.150894,104.466278 152.065323,102.851738 
	C149.141083,98.502594 145.595917,95.644424 139.327286,97.042313 
	C138.906342,97.085693 138.485382,97.129074 137.579285,97.061684 
	C137.579285,97.061684 137.081833,97.075317 136.294647,97.161522 
	C135.855850,99.778374 135.417053,102.395233 134.486984,105.197052 
	C133.671799,105.135460 132.856613,105.073868 131.544846,104.588188 
	C130.380341,103.365364 129.215851,102.142548 128.006271,100.980385 
	C128.006271,100.980385 128.081146,100.970116 127.960091,100.418922 
	C127.630646,100.270065 127.301193,100.121208 126.988159,100.024170 
M254.781845,125.224319 
	C255.535263,124.487633 256.288696,123.750946 256.998322,122.999268 
	C256.998322,122.999268 257.017029,123.041634 257.674896,122.775833 
	C262.507477,115.744354 262.241486,107.639374 256.719910,101.167046 
	C255.479034,100.448303 254.238174,99.729561 252.999466,98.998703 
	C252.999466,98.998703 252.987366,99.005035 252.489883,98.421692 
	C248.316864,97.997353 244.143860,97.573013 239.194412,97.040276 
	C229.486084,99.009117 225.337082,103.798676 225.433624,112.925484 
	C225.523666,121.438301 229.833771,126.156494 239.936295,127.986877 
	C243.616287,127.610901 247.296265,127.234932 251.623550,126.914665 
	C252.471970,126.337296 253.320389,125.759926 254.055679,125.083633 
	C254.055679,125.083633 254.116562,125.221031 254.781845,125.224319 
M208.929001,108.229729 
	C207.337906,106.437866 205.746811,104.646004 203.924973,102.200584 
	C201.229507,96.444435 196.203613,96.535645 190.188568,97.095398 
	C189.859329,97.614845 189.247131,98.132057 189.242996,98.654076 
	C189.171555,107.684715 189.130981,116.716499 189.242661,125.746056 
	C189.251923,126.494209 190.402359,127.228241 191.884048,128.045914 
	C199.454620,128.088287 199.324631,128.090225 199.211487,120.524216 
	C199.187103,118.893929 200.472366,117.244057 201.428940,116.231636 
	C203.279709,118.368416 205.488525,120.292320 206.910538,122.684013 
	C210.428024,128.600052 215.561127,128.919601 221.653275,127.613213 
	C221.653275,117.494453 221.653275,107.448906 221.653275,97.045418 
	C218.574707,97.045418 215.787155,97.045418 212.229385,97.057686 
	C211.824982,101.440300 211.420578,105.822914 210.498611,109.928001 
	C210.051727,109.567497 209.604843,109.206993 208.929001,108.229729 
M156.198471,88.204819 
	C156.198471,88.204819 156.544205,88.071877 157.333740,88.529045 
	C158.236282,88.619553 159.138809,88.710052 160.729721,89.019089 
	C162.104263,89.345329 163.478790,89.671570 165.094162,90.638748 
	C168.849899,94.769447 172.605637,98.900146 176.565247,103.255066 
	C181.439224,98.158142 185.324783,94.094856 189.898132,89.740524 
	C191.587463,89.391655 193.276810,89.042778 195.806137,88.759155 
	C210.835907,86.736542 225.865677,84.713928 240.895447,82.691315 
	C240.849152,81.991333 240.802841,81.291351 240.756546,80.591362 
	C236.559280,80.365471 232.362015,80.139572 227.391861,79.381172 
	C223.290039,78.873756 219.188202,78.366348 215.101166,77.064827 
	C213.329498,72.280991 211.729446,67.424965 209.753433,62.727089 
	C204.202621,49.530289 198.496887,36.398655 192.664703,22.804199 
	C191.208359,25.609236 190.069565,27.802643 188.200378,29.999640 
	C187.467117,29.999529 186.733871,29.999416 185.758148,29.433144 
	C185.174713,28.620155 184.591278,27.807167 183.928741,26.269907 
	C181.834229,21.885000 179.739731,17.500093 176.957886,11.676224 
	C174.183350,17.783836 172.090149,22.391636 169.467041,27.418531 
	C168.635178,29.275923 167.803329,31.133312 166.564804,32.995720 
	C166.564804,32.995720 166.158081,32.993404 165.787186,32.371525 
	C164.376572,29.366756 162.965942,26.361990 161.268387,22.746029 
	C153.649200,40.472713 146.300171,57.560566 138.967667,74.655495 
	C138.514465,75.712082 138.191299,76.824448 137.003967,78.124725 
	C135.238663,78.381165 133.445038,78.517052 131.714920,78.923325 
	C129.340424,79.480904 127.014069,80.243454 123.808594,80.908272 
	C120.269554,80.908272 116.730515,80.908272 113.191475,80.908272 
	C113.120651,81.494392 113.049820,82.080513 112.978996,82.666641 
	C127.315331,84.428757 141.471771,87.332870 156.024399,88.035866 
	C156.024399,88.035866 156.082291,88.008202 156.198471,88.204819 
M282.995209,97.999794 
	C282.995209,97.999794 283.047424,98.000099 282.379395,98.295105 
	C280.630249,102.875969 278.881104,107.456825 276.849182,111.345573 
	C274.984985,106.739014 273.120789,102.132446 271.304657,97.644691 
	C267.636902,97.844994 264.267517,98.028992 260.490356,98.235260 
	C263.424011,106.440475 266.603363,114.146858 268.868256,122.113228 
	C270.222626,126.876999 273.477478,128.619415 279.233032,127.996544 
	C284.121124,127.467552 286.031494,124.347916 286.498718,119.328125 
	C289.465179,112.083794 292.431641,104.839462 295.593994,97.116745 
	C293.639435,97.116745 292.844757,97.116745 291.177582,97.002831 
	C288.842438,97.023865 286.507263,97.044899 283.576416,97.080513 
	C283.389893,97.402786 283.203339,97.725067 282.995209,97.999794 
M49.542522,109.031036 
	C46.842495,105.777138 44.271210,102.401688 41.374454,99.333534 
	C40.323250,98.220131 38.494511,97.840828 36.255344,97.005173 
	C34.545570,97.282608 32.835793,97.560043 30.718714,97.224915 
	C30.001165,97.843361 28.667995,98.452766 28.658766,99.081596 
	C28.528530,107.956169 28.514433,116.834183 28.624496,125.709465 
	C28.656162,128.262863 30.072727,128.698288 32.973450,127.066422 
	C34.884598,127.066422 36.795742,127.066422 39.127087,127.066422 
	C39.127087,123.025513 39.127087,119.595970 39.817097,116.137573 
	C41.962116,118.313782 44.482910,120.234802 46.171288,122.721107 
	C49.355408,127.410027 53.472965,129.026230 59.555496,128.022003 
	C60.016491,128.002090 60.477486,127.982185 61.624287,127.925110 
	C62.167297,127.148224 63.183228,126.369820 63.180725,125.594696 
	C63.153378,117.130981 63.031391,108.665581 62.742779,100.207199 
	C62.706215,99.135620 61.569244,98.101585 60.280434,96.984238 
	C59.841980,97.037209 59.403530,97.090179 58.223553,97.288109 
	C56.510414,97.468452 54.797272,97.648796 52.674820,97.209496 
	C51.929756,98.275826 50.697754,99.272804 50.534084,100.421936 
	C50.102882,103.449425 50.135792,106.542999 49.542522,109.031036 
M325.609802,127.154068 
	C326.163818,127.426537 326.717865,127.699005 327.271881,127.971474 
	C327.624451,127.766876 327.977051,127.562271 328.329620,127.357666 
	C325.596497,121.204773 322.863342,115.051880 320.056366,108.153854 
	C319.093475,105.743042 317.858795,103.399673 317.239410,100.903618 
	C316.532410,98.054581 315.189423,97.249260 312.363098,97.888840 
	C310.625702,98.282005 308.670837,97.696053 306.922638,98.065521 
	C305.527191,98.360435 303.541840,99.134377 303.113342,100.211090 
	C299.972015,108.103729 297.175964,116.133270 294.228790,124.104027 
	C293.251495,126.747147 294.530396,128.121796 296.892242,127.923813 
	C299.235809,127.727356 302.222382,127.365112 303.669098,125.863594 
	C307.170776,122.229286 312.816223,123.117264 314.223267,124.706535 
	C317.783417,128.727753 321.413605,126.467140 325.609802,127.154068 
z"/>
<path fill="#F9F7FC" opacity="1.000000" stroke="none" 
	d="
M166.158081,32.993401 
	C166.158081,32.993404 166.564804,32.995720 167.175110,32.996143 
	C169.749939,33.605812 171.807602,34.012890 173.659653,34.866234 
	C177.561600,36.664082 184.820618,33.900185 186.000610,29.999306 
	C186.733871,29.999416 187.467117,29.999529 188.513397,30.384359 
	C188.535477,32.178604 187.581497,33.885574 188.059143,34.950294 
	C191.680618,43.022793 195.403275,51.061775 199.452896,58.926609 
	C202.774979,65.378471 206.589951,71.576538 209.873444,78.127701 
	C207.746536,78.606102 205.932632,78.843918 203.701660,79.007965 
	C201.885483,78.928108 200.486374,78.922005 198.996490,78.722260 
	C198.794357,78.242050 198.591278,78.055237 198.223114,77.614037 
	C196.755463,74.870865 195.361176,72.481804 193.905273,69.833466 
	C193.584656,69.348961 193.325653,69.123749 193.049316,68.933594 
	C193.031998,68.968651 193.109375,68.980064 193.090317,68.671913 
	C192.727982,67.893600 192.384720,67.423447 192.035522,66.961777 
	C192.029602,66.970276 192.056458,66.943283 191.983383,66.597488 
	C189.267075,62.144291 186.623840,58.036880 184.047546,53.566536 
	C181.872238,48.768715 179.630005,44.333824 177.387756,39.898933 
	C176.916046,39.840282 176.444321,39.781631 175.972610,39.722980 
	C175.250946,41.464577 174.529282,43.206173 173.555634,45.070869 
	C173.188339,45.728943 173.073059,46.263920 172.713409,46.930607 
	C172.135040,47.704441 171.801010,48.346565 171.307770,49.222801 
	C171.108536,49.641380 171.068527,49.825840 170.754379,50.148079 
	C170.290405,50.853291 170.100586,51.420727 169.646118,52.154907 
	C169.081039,52.867493 168.780563,53.413334 168.266754,54.188461 
	C164.949387,60.194500 161.845352,65.971260 158.474976,71.955536 
	C157.074341,74.392769 155.940033,76.622490 154.404541,78.898132 
	C152.660614,78.998985 151.317856,79.053917 149.589447,79.012306 
	C147.197998,78.578911 145.192230,78.242050 143.152206,77.885162 
	C143.117966,77.865143 143.049408,77.905045 143.142929,77.579468 
	C148.141510,71.711502 149.785492,64.376595 154.607300,58.407986 
	C160.268936,51.399811 162.461166,41.588814 166.158081,32.993401 
z"/>
<path fill="#7A2AE4" opacity="1.000000" stroke="none" 
	d="
M104.320740,99.172905 
	C110.924362,96.346001 117.640755,96.157616 124.870407,98.872032 
	C125.869446,99.625427 126.455383,99.819084 127.041313,100.012741 
	C127.041313,100.012741 126.988159,100.024170 127.071686,100.252541 
	C127.463860,100.643982 127.772499,100.807045 128.081146,100.970116 
	C128.081146,100.970116 128.006271,100.980385 128.000549,101.335960 
	C128.982666,106.113625 130.390427,110.497414 130.798492,114.972374 
	C131.037476,117.593269 129.682693,120.359497 129.044861,123.060349 
	C129.044861,123.060349 129.002350,123.002113 128.695206,123.019211 
	C127.922897,123.703461 127.457741,124.370605 126.992577,125.037750 
	C126.992577,125.037750 126.997124,124.988167 126.662369,124.972954 
	C125.619446,125.428207 124.911270,125.898674 124.203094,126.369141 
	C124.203094,126.369141 124.151276,126.255661 123.961609,126.246529 
	C123.423058,126.325867 123.184067,126.538033 123.054977,126.873901 
	C117.676941,126.871834 112.298912,126.869766 106.294617,126.556374 
	C95.860146,119.698654 95.283447,108.113304 104.320740,99.172905 
M121.028114,117.054031 
	C121.028114,117.054031 121.105553,117.032669 121.861732,116.846092 
	C123.215431,113.749130 124.538269,110.654861 121.011803,107.968170 
	C121.011803,107.968170 121.044991,107.902298 121.079094,107.188278 
	C120.353737,106.453247 119.628387,105.718216 118.194016,104.779770 
	C113.319267,103.583244 109.375488,105.613586 109.078674,109.911552 
	C108.641701,116.238907 108.884125,120.569801 117.647240,121.016472 
	C118.785973,119.719704 119.924706,118.422935 121.028114,117.054031 
z"/>
<path fill="#7B23E9" opacity="1.000000" stroke="none" 
	d="
M39.127087,116.166428 
	C39.127087,119.595970 39.127087,123.025513 39.127087,127.066422 
	C36.795742,127.066422 34.884598,127.066422 32.210720,126.839462 
	C31.340668,117.020828 31.233343,107.429153 31.126019,97.837486 
	C32.835793,97.560043 34.545570,97.282608 36.793533,97.351906 
	C38.940132,99.532570 40.489250,101.423019 42.170856,103.187180 
	C44.689083,105.829033 47.300404,108.382149 50.138519,111.240067 
	C51.260677,110.591385 52.765900,109.735008 52.855980,108.749298 
	C53.186516,105.132500 53.046822,101.472740 53.084133,97.829147 
	C54.797272,97.648796 56.510414,97.468452 58.769951,97.586472 
	C59.134972,107.604149 58.953598,117.323463 58.360802,127.041275 
	C54.522614,127.610802 52.101841,126.355934 49.878418,123.598427 
	C46.884750,119.885681 43.340988,116.616486 39.127087,112.209061 
	C39.127087,114.569023 39.127087,115.367722 39.127087,116.166428 
z"/>
<path fill="#7C23E7" opacity="1.000000" stroke="none" 
	d="
M145.015793,127.906738 
	C143.608521,127.937988 142.201233,127.969238 140.329575,127.516083 
	C139.894043,117.078476 139.922913,107.125267 139.951782,97.172058 
	C145.595917,95.644424 149.141083,98.502594 152.065323,102.851738 
	C153.150894,104.466278 154.516571,105.892479 155.705978,107.822952 
	C155.870041,108.344467 156.082642,108.447586 156.295242,108.550705 
	C156.295242,108.550705 156.314545,108.635490 156.331146,109.051315 
	C157.224243,110.246178 158.100739,111.025208 158.977249,111.804245 
	C159.641983,110.801003 160.654739,109.871986 160.888290,108.776794 
	C161.222260,107.210701 161.193253,105.492218 160.954758,103.893173 
	C160.254211,99.196060 162.108521,97.203720 166.884735,98.402794 
	C166.863861,108.267265 166.782181,117.662521 166.304626,127.050903 
	C163.245163,126.142426 159.991470,125.909531 158.046722,124.193352 
	C154.516479,121.078041 151.765137,117.080101 148.436188,113.152634 
	C147.556198,114.188751 146.843613,115.027779 146.090057,116.329025 
	C145.704651,120.496407 145.360229,124.201576 145.015793,127.906738 
z"/>
<path fill="#7927E7" opacity="1.000000" stroke="none" 
	d="
M324.978729,126.877228 
	C321.413605,126.467140 317.783417,128.727753 314.223267,124.706535 
	C312.816223,123.117264 307.170776,122.229286 303.669098,125.863594 
	C302.222382,127.365112 299.235809,127.727356 296.892242,127.923813 
	C294.530396,128.121796 293.251495,126.747147 294.228790,124.104027 
	C297.175964,116.133270 299.972015,108.103729 303.113342,100.211090 
	C303.541840,99.134377 305.527191,98.360435 306.922638,98.065521 
	C308.670837,97.696053 310.625702,98.282005 312.363098,97.888840 
	C315.189423,97.249260 316.532410,98.054581 317.239410,100.903618 
	C317.858795,103.399673 319.093475,105.743042 319.875580,108.744370 
	C321.456116,115.182327 323.217438,121.029778 324.978729,126.877228 
M312.357452,114.770432 
	C311.726440,112.697220 311.095428,110.624008 310.464386,108.550789 
	C310.040131,108.483665 309.615875,108.416534 309.191620,108.349411 
	C308.437378,111.381714 307.683136,114.414024 306.928894,117.446335 
	C307.507874,117.826622 308.086853,118.206909 308.665802,118.587204 
	C309.958862,117.554283 311.251923,116.521362 312.357452,114.770432 
z"/>
<path fill="#7B25E6" opacity="1.000000" stroke="none" 
	d="
M250.976257,126.858963 
	C247.296265,127.234932 243.616287,127.610901 239.399902,127.572571 
	C229.214386,122.518509 227.177078,119.399101 227.977234,109.841629 
	C228.587128,102.556854 233.564774,99.480080 240.425018,97.964020 
	C244.911087,98.322800 248.949234,98.663918 252.987366,99.005035 
	C252.987366,99.005035 252.999466,98.998703 253.019440,99.343094 
	C254.277939,100.819962 255.516449,101.952438 256.826752,103.470139 
	C259.043854,108.349899 259.554749,112.945084 258.011322,117.765656 
	C257.469757,119.457039 257.336639,121.279198 257.017029,123.041634 
	C257.017029,123.041634 256.998322,122.999268 256.679932,122.990372 
	C255.613235,123.727997 254.864899,124.474510 254.116562,125.221024 
	C254.116562,125.221031 254.055679,125.083633 253.786774,125.078712 
	C252.670670,125.668846 251.823471,126.263908 250.976257,126.858963 
M236.989426,109.884460 
	C237.488235,113.298637 235.691055,117.348099 239.728302,119.783218 
	C243.150818,121.847580 246.122025,121.275261 248.269073,117.948051 
	C250.916855,113.844872 249.398499,106.492928 245.713928,104.675568 
	C242.284409,102.984009 239.367599,104.520866 236.989426,109.884460 
z"/>
<path fill="#7829E6" opacity="1.000000" stroke="none" 
	d="
M284.172119,97.065933 
	C286.507263,97.044899 288.842438,97.023865 291.629395,97.466705 
	C291.411194,100.625191 290.817413,103.341583 290.054352,106.009552 
	C288.744110,110.590576 287.328217,115.141373 285.956665,119.704865 
	C286.031494,124.347916 284.121124,127.467552 279.233032,127.996544 
	C273.477478,128.619415 270.222626,126.876999 268.868256,122.113228 
	C266.603363,114.146858 263.424011,106.440475 260.490356,98.235260 
	C264.267517,98.028992 267.636902,97.844994 271.304657,97.644691 
	C273.120789,102.132446 274.984985,106.739014 276.939362,112.053513 
	C277.157562,113.917641 277.285553,115.073837 277.413574,116.230042 
	C277.879761,116.282791 278.345947,116.335541 278.812103,116.388290 
	C280.223877,110.258896 281.635651,104.129494 283.047424,98.000099 
	C283.047424,98.000099 282.995209,97.999794 283.254333,97.940948 
	C283.733002,97.610054 283.952545,97.337997 284.172119,97.065933 
z"/>
<path fill="#7C22E6" opacity="1.000000" stroke="none" 
	d="
M80.018646,108.827454 
	C83.031639,108.887764 86.044632,108.948067 89.712891,109.388542 
	C90.834457,110.859474 91.876030,112.130394 91.606598,112.990761 
	C91.332573,113.865799 89.810898,114.793907 88.758171,114.895294 
	C85.974419,115.163399 83.121544,114.773117 80.352913,115.110466 
	C79.205963,115.250214 78.203644,116.576912 77.135551,117.363815 
	C78.096886,118.519508 79.058212,119.675194 80.019547,120.830879 
	C83.695343,120.888153 87.371132,120.945427 91.686104,121.380310 
	C95.243240,123.110672 94.552460,125.017220 92.656708,127.014938 
	C84.472893,126.972572 76.767494,126.950531 69.041397,126.464729 
	C69.010284,117.898125 69.076424,109.794044 68.947334,101.693085 
	C68.903023,98.911873 69.902519,97.893509 72.692543,97.937309 
	C79.469841,98.043709 86.250710,97.922081 93.352753,98.090973 
	C95.287956,102.045296 92.230232,102.714073 89.963432,103.905624 
	C86.946983,103.953987 83.930527,104.002350 80.108627,104.055542 
	C78.690895,104.993652 77.564598,105.963928 77.628273,106.848557 
	C77.679604,107.561844 79.167877,108.171707 80.018646,108.827454 
z"/>
<path fill="#231E51" opacity="1.000000" stroke="none" 
	d="
M165.972626,32.682465 
	C162.461166,41.588814 160.268936,51.399811 154.607300,58.407986 
	C149.785492,64.376595 148.141510,71.711502 142.708328,77.628777 
	C140.722687,77.972733 139.265152,77.941795 137.807632,77.910858 
	C138.191299,76.824448 138.514465,75.712082 138.967667,74.655495 
	C146.300171,57.560566 153.649200,40.472713 161.268387,22.746029 
	C162.965942,26.361990 164.376572,29.366756 165.972626,32.682465 
z"/>
<path fill="#231E51" opacity="1.000000" stroke="none" 
	d="
M210.186447,77.887100 
	C206.589951,71.576538 202.774979,65.378471 199.452896,58.926609 
	C195.403275,51.061775 191.680618,43.022793 188.059143,34.950294 
	C187.581497,33.885574 188.535477,32.178604 188.878601,30.382565 
	C190.069565,27.802643 191.208359,25.609236 192.664703,22.804199 
	C198.496887,36.398655 204.202621,49.530289 209.753433,62.727089 
	C211.729446,67.424965 213.329498,72.280991 214.691620,77.529694 
	C212.916870,77.958740 211.551651,77.922920 210.186447,77.887100 
z"/>
<path fill="#29235C" opacity="1.000000" stroke="none" 
	d="
M228.164749,79.913681 
	C232.362015,80.139572 236.559280,80.365471 240.756546,80.591362 
	C240.802841,81.291351 240.849152,81.991333 240.895447,82.691315 
	C225.865677,84.713928 210.835907,86.736542 195.408722,88.387817 
	C196.045868,86.751511 197.080429,85.486549 198.530304,84.156860 
	C200.895477,83.923378 202.845306,83.754631 205.214508,83.685440 
	C208.900543,83.494019 212.208603,83.433250 215.423752,82.855423 
	C219.708588,82.085350 223.921143,80.913147 228.164749,79.913681 
z"/>
<path fill="#1E1750" opacity="1.000000" stroke="none" 
	d="
M189.210342,90.031570 
	C185.324783,94.094856 181.439224,98.158142 176.565247,103.255066 
	C172.605637,98.900146 168.849899,94.769447 165.374023,90.306938 
	C167.157776,89.716042 168.661667,89.456955 170.498413,89.338272 
	C174.892227,89.651337 178.953171,89.823990 183.455109,90.021362 
	C185.667526,90.041245 187.438934,90.036407 189.210342,90.031570 
z"/>
<path fill="#EDEBFD" opacity="1.000000" stroke="none" 
	d="
M169.996948,26.999435 
	C172.090149,22.391636 174.183350,17.783836 176.957886,11.676224 
	C179.739731,17.500093 181.834229,21.885000 183.807373,26.949883 
	C178.981628,31.792002 174.787979,31.598871 169.996948,26.999435 
z"/>
<path fill="#F5EEFA" opacity="1.000000" stroke="none" 
	d="
M93.135124,127.035255 
	C94.552460,125.017220 95.243240,123.110672 92.140953,121.435745 
	C93.423615,120.524490 94.890594,119.935394 96.357582,119.346298 
	C95.914116,119.243408 95.470650,119.140526 95.027191,119.037643 
	C96.326057,113.425446 97.386986,107.739410 99.089577,102.252487 
	C99.520126,100.864967 101.998314,100.112839 103.928146,99.120819 
	C95.283447,108.113304 95.860146,119.698654 105.880676,126.496605 
	C104.625877,126.558357 102.990021,126.711494 101.733673,126.093323 
	C100.105141,125.292023 98.778984,123.876167 96.003082,121.681679 
	C97.871338,128.680298 94.737289,129.283401 90.466324,129.045029 
	C85.203735,128.751343 79.922119,128.798615 74.779701,128.378632 
	C80.985489,127.717575 87.060310,127.376411 93.135124,127.035255 
z"/>
<path fill="#231E51" opacity="1.000000" stroke="none" 
	d="
M155.982727,87.986618 
	C141.471771,87.332870 127.315331,84.428757 112.978996,82.666641 
	C113.049820,82.080513 113.120651,81.494392 113.191475,80.908272 
	C116.730515,80.908272 120.269554,80.908272 124.651382,80.923088 
	C127.329643,81.325500 129.165115,81.713089 131.092010,82.467758 
	C133.835022,82.817413 136.486603,82.799988 139.556976,82.799301 
	C141.649338,82.928680 143.322922,83.041328 145.079575,83.500000 
	C147.742294,84.603447 150.179337,87.937416 153.377823,84.217896 
	C154.497681,84.259476 155.243134,84.363243 155.986588,84.819000 
	C155.983978,86.109535 155.983353,87.048073 155.982727,87.986618 
z"/>
<path fill="#9049B3" opacity="1.000000" stroke="none" 
	d="
M212.999603,97.045418 
	C215.787155,97.045418 218.574707,97.045418 221.653275,97.045418 
	C221.653275,107.448906 221.653275,117.494453 221.653275,127.613213 
	C215.561127,128.919601 210.428024,128.600052 206.910538,122.684013 
	C205.488525,120.292320 203.279709,118.368416 201.381256,115.778824 
	C201.509888,115.189178 201.704926,115.088715 202.220520,115.178848 
	C204.494263,117.537704 206.491287,119.720528 208.432297,121.952049 
	C211.413483,125.379395 214.378281,128.781006 220.057037,126.073235 
	C220.057037,119.032143 220.058823,111.939148 220.056549,104.846146 
	C220.054337,97.975800 220.052490,97.975800 213.063965,97.680870 
	C213.029495,97.470573 212.999603,97.045418 212.999603,97.045418 
z"/>
<path fill="#615ADC" opacity="1.000000" stroke="none" 
	d="
M239.977081,97.946350 
	C233.564774,99.480080 228.587128,102.556854 227.977234,109.841629 
	C227.177078,119.399101 229.214386,122.518509 238.956406,127.494270 
	C229.833771,126.156494 225.523666,121.438301 225.433624,112.925484 
	C225.337082,103.798676 229.486084,99.009117 239.586243,97.293869 
	C239.978058,97.547470 239.977081,97.946350 239.977081,97.946350 
z"/>
<path fill="#587AE6" opacity="1.000000" stroke="none" 
	d="
M30.922367,97.531204 
	C31.233343,107.429153 31.340668,117.020828 31.769541,126.909363 
	C30.072727,128.698288 28.656162,128.262863 28.624496,125.709465 
	C28.514433,116.834183 28.528530,107.956169 28.658766,99.081596 
	C28.667995,98.452766 30.001165,97.843361 30.922367,97.531204 
z"/>
<path fill="#F5EEFA" opacity="1.000000" stroke="none" 
	d="
M169.731995,27.208984 
	C174.787979,31.598871 178.981628,31.792002 183.846924,27.312019 
	C184.591278,27.807167 185.174713,28.620155 185.879379,29.716225 
	C184.820618,33.900185 177.561600,36.664082 173.659653,34.866234 
	C171.807602,34.012890 169.749939,33.605812 167.378448,32.993637 
	C167.803329,31.133312 168.635178,29.275923 169.731995,27.208984 
z"/>
<path fill="#402FA7" opacity="1.000000" stroke="none" 
	d="
M227.778305,79.647430 
	C223.921143,80.913147 219.708588,82.085350 215.423752,82.855423 
	C212.208603,83.433250 208.900543,83.494019 205.351990,83.405350 
	C206.186096,82.304008 207.302094,81.582291 208.719421,80.665695 
	C206.903839,80.040611 205.511292,79.561165 204.118729,79.081726 
	C205.932632,78.843918 207.746536,78.606102 209.873444,78.127701 
	C211.551651,77.922920 212.916870,77.958740 214.684235,77.926750 
	C219.188202,78.366348 223.290039,78.873756 227.778305,79.647430 
z"/>
<path fill="#6242DE" opacity="1.000000" stroke="none" 
	d="
M93.030144,97.892319 
	C86.250710,97.922081 79.469841,98.043709 72.692543,97.937309 
	C69.902519,97.893509 68.903023,98.911873 68.947334,101.693085 
	C69.076424,109.794044 69.010284,117.898125 68.830658,126.567123 
	C68.366112,127.301468 68.167465,127.534355 68.044678,127.831917 
	C68.044678,127.831917 67.561432,127.903732 67.295448,127.434860 
	C67.069374,117.010529 67.109283,107.055084 67.149193,97.099632 
	C75.438530,97.061150 83.727867,97.022667 92.503082,97.238205 
	C92.988960,97.492226 93.030144,97.892319 93.030144,97.892319 
z"/>
<path fill="#C6EFFF" opacity="1.000000" stroke="none" 
	d="
M134.978241,105.012085 
	C135.417053,102.395233 135.855850,99.778374 136.641968,97.549011 
	C137.196594,100.714516 137.403885,103.492546 137.595642,106.618484 
	C137.588852,107.894691 137.597610,108.822990 137.392944,110.121330 
	C137.136810,116.297287 137.094116,122.103188 137.051422,127.909096 
	C132.925461,126.109596 135.948486,122.484138 134.999283,118.966019 
	C134.992477,113.709831 134.985352,109.360962 134.978241,105.012085 
z"/>
<path fill="#C6EFFF" opacity="1.000000" stroke="none" 
	d="
M66.739426,97.140442 
	C67.109283,107.055084 67.069374,117.010529 67.051285,127.427116 
	C66.450417,127.853981 65.281937,127.818398 65.282013,127.785614 
	C65.305984,117.758461 65.406334,107.731453 65.547050,97.705025 
	C65.549553,97.526810 66.057541,97.355690 66.739426,97.140442 
z"/>
<path fill="#6197EB" opacity="1.000000" stroke="none" 
	d="
M191.022583,127.968826 
	C190.402359,127.228241 189.251923,126.494209 189.242661,125.746056 
	C189.130981,116.716499 189.171555,107.684715 189.242996,98.654076 
	C189.247131,98.132057 189.859329,97.614845 190.586380,97.330063 
	C191.019928,97.731850 191.055664,97.898964 191.038330,98.525208 
	C191.018311,105.683762 191.051331,112.383179 191.029831,119.523605 
	C190.991074,122.632690 191.006821,125.300758 191.022583,127.968826 
z"/>
<path fill="#9026AC" opacity="1.000000" stroke="none" 
	d="
M166.700500,127.057770 
	C166.782181,117.662521 166.863861,108.267265 166.914337,98.202705 
	C166.883118,97.533394 166.863617,97.128525 166.863617,97.128525 
	C167.608978,97.702118 168.996292,98.267471 169.003784,98.850525 
	C169.123474,108.179703 169.083282,117.511292 168.993134,126.841492 
	C168.989410,127.226845 168.141693,127.604042 167.243378,127.731598 
	C166.799561,127.478157 166.700500,127.057770 166.700500,127.057770 
z"/>
<path fill="#F5EEFA" opacity="1.000000" stroke="none" 
	d="
M80.015717,120.419907 
	C79.058212,119.675194 78.096886,118.519508 77.135551,117.363815 
	C78.203644,116.576912 79.205963,115.250214 80.352913,115.110466 
	C83.121544,114.773117 85.974419,115.163399 88.758171,114.895294 
	C89.810898,114.793907 91.332573,113.865799 91.606598,112.990761 
	C91.876030,112.130394 90.834457,110.859474 90.160858,109.444458 
	C92.463486,106.965515 93.675774,108.535904 93.870697,110.851639 
	C94.075943,113.290146 95.018051,116.597206 90.856529,116.934563 
	C88.379791,117.135330 85.810753,116.664444 83.409225,117.136559 
	C82.137695,117.386520 81.135620,119.007103 80.015717,120.419907 
z"/>
<path fill="#E7B3CD" opacity="1.000000" stroke="none" 
	d="
M60.942085,97.050156 
	C61.569244,98.101585 62.706215,99.135620 62.742779,100.207199 
	C63.031391,108.665581 63.153378,117.130981 63.180725,125.594696 
	C63.183228,126.369820 62.167297,127.148224 61.352264,127.481934 
	C61.034195,117.042557 60.988140,107.046356 60.942085,97.050156 
z"/>
<path fill="#A13B9C" opacity="1.000000" stroke="none" 
	d="
M286.227692,119.516495 
	C287.328217,115.141373 288.744110,110.590576 290.054352,106.009552 
	C290.817413,103.341583 291.411194,100.625191 292.065613,97.523666 
	C292.844757,97.116745 293.639435,97.116745 295.593994,97.116745 
	C292.431641,104.839462 289.465179,112.083794 286.227692,119.516495 
z"/>
<path fill="#402FA7" opacity="1.000000" stroke="none" 
	d="
M131.000580,82.100677 
	C129.165115,81.713089 127.329643,81.325500 125.080627,80.928040 
	C127.014069,80.243454 129.340424,79.480904 131.714920,78.923325 
	C133.445038,78.517052 135.238663,78.381165 137.405792,78.017792 
	C139.265152,77.941795 140.722687,77.972733 142.614807,77.954361 
	C143.049408,77.905045 143.117966,77.865143 143.065094,78.220917 
	C141.681885,79.728493 140.351562,80.880287 138.574432,82.046814 
	C135.751938,82.074593 133.376266,82.087639 131.000580,82.100677 
z"/>
<path fill="#6242DE" opacity="1.000000" stroke="none" 
	d="
M166.432220,97.059113 
	C166.863617,97.128525 166.883118,97.533394 166.853516,97.733482 
	C162.108521,97.203720 160.254211,99.196060 160.954758,103.893173 
	C161.193253,105.492218 161.222260,107.210701 160.888290,108.776794 
	C160.654739,109.871986 159.641983,110.801003 158.977249,111.804245 
	C158.100739,111.025208 157.224243,110.246178 156.335297,109.094589 
	C157.019714,107.968521 158.249741,107.259850 158.317581,106.453400 
	C158.561646,103.552849 158.413406,100.619293 158.413406,96.989708 
	C161.242065,96.989708 163.621445,96.989708 166.432220,97.059113 
z"/>
<path fill="#615ADC" opacity="1.000000" stroke="none" 
	d="
M39.472092,116.152000 
	C39.127087,115.367722 39.127087,114.569023 39.127087,112.209061 
	C43.340988,116.616486 46.884750,119.885681 49.878418,123.598427 
	C52.101841,126.355934 54.522614,127.610802 58.405510,127.256348 
	C58.861645,127.472923 58.868877,127.911530 58.868877,127.911530 
	C53.472965,129.026230 49.355408,127.410027 46.171288,122.721107 
	C44.482910,120.234802 41.962116,118.313782 39.472092,116.152000 
z"/>
<path fill="#615ADC" opacity="1.000000" stroke="none" 
	d="
M166.304626,127.050903 
	C166.700500,127.057770 166.799561,127.478157 166.791565,127.694084 
	C160.949875,129.235321 156.816666,126.894829 153.540878,122.136200 
	C152.086014,120.022736 150.027405,118.324875 147.701782,116.248680 
	C146.817490,115.994934 146.474258,115.930870 146.131027,115.866806 
	C146.843613,115.027779 147.556198,114.188751 148.436188,113.152634 
	C151.765137,117.080101 154.516479,121.078041 158.046722,124.193352 
	C159.991470,125.909531 163.245163,126.142426 166.304626,127.050903 
z"/>
<path fill="#A13B9C" opacity="1.000000" stroke="none" 
	d="
M257.345947,122.908737 
	C257.336639,121.279198 257.469757,119.457039 258.011322,117.765656 
	C259.554749,112.945084 259.043854,108.349899 256.904358,103.132278 
	C256.934753,102.180046 256.959351,101.950905 256.983948,101.721764 
	C262.241486,107.639374 262.507477,115.744354 257.345947,122.908737 
z"/>
<path fill="#A13B9C" opacity="1.000000" stroke="none" 
	d="
M129.371216,122.971138 
	C129.682693,120.359497 131.037476,117.593269 130.798492,114.972374 
	C130.390427,110.497414 128.982666,106.113625 128.023087,101.305634 
	C129.215851,102.142548 130.380341,103.365364 131.822388,105.210518 
	C132.394241,109.550812 132.688553,113.268776 132.982849,116.986740 
	C131.887756,118.951797 130.792664,120.916862 129.371216,122.971138 
z"/>
<path fill="#A13B9C" opacity="1.000000" stroke="none" 
	d="
M325.294250,127.015648 
	C323.217438,121.029778 321.456116,115.182327 319.912506,109.116928 
	C322.863342,115.051880 325.596497,121.204773 328.329620,127.357666 
	C327.977051,127.562271 327.624451,127.766876 327.271881,127.971474 
	C326.717865,127.699005 326.163818,127.426537 325.294250,127.015648 
z"/>
<path fill="#615ADC" opacity="1.000000" stroke="none" 
	d="
M52.879478,97.519318 
	C53.046822,101.472740 53.186516,105.132500 52.855980,108.749298 
	C52.765900,109.735008 51.260677,110.591385 50.158009,111.012947 
	C49.912010,110.214073 49.936268,109.911232 49.983875,109.610260 
	C50.135792,106.542999 50.102882,103.449425 50.534084,100.421936 
	C50.697754,99.272804 51.929756,98.275826 52.879478,97.519318 
z"/>
<path fill="#7BBDFA" opacity="1.000000" stroke="none" 
	d="
M282.713409,98.147598 
	C281.635651,104.129494 280.223877,110.258896 278.812103,116.388290 
	C278.345947,116.335541 277.879761,116.282791 277.413574,116.230042 
	C277.285553,115.073837 277.157562,113.917641 277.080750,112.399567 
	C278.881104,107.456825 280.630249,102.875969 282.713409,98.147598 
z"/>
<path fill="#7C38C4" opacity="1.000000" stroke="none" 
	d="
M191.453308,128.007370 
	C191.006821,125.300758 190.991074,122.632690 191.298645,119.798401 
	C192.937149,121.717781 189.963882,126.521118 195.372009,125.946854 
	C200.024841,125.452782 197.326157,121.598503 197.995209,119.289253 
	C198.217026,118.523735 197.728989,117.219467 198.137421,116.905449 
	C199.232574,116.063507 200.637085,115.623985 201.918716,115.024628 
	C201.704926,115.088715 201.509888,115.189178 201.243973,115.464615 
	C200.472366,117.244057 199.187103,118.893929 199.211487,120.524216 
	C199.324631,128.090225 199.454620,128.088287 191.453308,128.007370 
z"/>
<path fill="#2E1B95" opacity="1.000000" stroke="none" 
	d="
M189.554230,89.886047 
	C187.438934,90.036407 185.667526,90.041245 183.694885,89.758438 
	C185.824417,88.593559 189.127838,88.942375 189.483368,85.043991 
	C192.638535,84.766014 195.376755,84.493805 198.114990,84.221588 
	C197.080429,85.486549 196.045868,86.751511 194.988708,88.355186 
	C193.276810,89.042778 191.587463,89.391655 189.554230,89.886047 
z"/>
<path fill="#9026AC" opacity="1.000000" stroke="none" 
	d="
M59.212189,127.966766 
	C58.868877,127.911530 58.861645,127.472923 58.816933,127.257843 
	C58.953598,117.323463 59.134972,107.604149 59.140709,97.513992 
	C59.403530,97.090179 59.841980,97.037209 60.611259,97.017197 
	C60.988140,107.046356 61.034195,117.042557 61.009361,127.500519 
	C60.477486,127.982185 60.016491,128.002090 59.212189,127.966766 
z"/>
<path fill="#9038AB" opacity="1.000000" stroke="none" 
	d="
M49.763199,109.320648 
	C49.936268,109.911232 49.912010,110.214073 49.891617,110.745895 
	C47.300404,108.382149 44.689083,105.829033 42.170856,103.187180 
	C40.489250,101.423019 38.940132,99.532570 37.176132,97.412605 
	C38.494511,97.840828 40.323250,98.220131 41.374454,99.333534 
	C44.271210,102.401688 46.842495,105.777138 49.763199,109.320648 
z"/>
<path fill="#402FA7" opacity="1.000000" stroke="none" 
	d="
M170.165543,89.197861 
	C168.661667,89.456955 167.157776,89.716042 165.253616,89.986465 
	C163.478790,89.671570 162.104263,89.345329 160.533615,88.613625 
	C160.548416,87.144226 160.759308,86.080284 161.407288,84.980316 
	C163.882065,84.988747 165.919739,85.033188 167.978836,85.432556 
	C168.722015,86.924271 169.443787,88.061066 170.165543,89.197861 
z"/>
<path fill="#587AE6" opacity="1.000000" stroke="none" 
	d="
M212.614502,97.051552 
	C212.999603,97.045418 213.029495,97.470573 213.012604,98.154877 
	C212.982376,101.937454 213.155930,105.053268 212.867615,108.125740 
	C212.744980,109.432602 211.655472,110.648735 211.002060,111.621597 
	C211.004547,110.959908 211.010361,110.582718 211.016174,110.205528 
	C211.420578,105.822914 211.824982,101.440300 212.614502,97.051552 
z"/>
<path fill="#4E32DC" opacity="1.000000" stroke="none" 
	d="
M137.606369,109.751282 
	C137.597610,108.822990 137.588852,107.894691 137.738342,106.168365 
	C137.952560,102.637711 138.008499,99.905075 138.064438,97.172455 
	C138.485382,97.129074 138.906342,97.085693 139.639526,97.107185 
	C139.922913,107.125267 139.894043,117.078476 139.914337,127.435883 
	C139.532532,127.883774 139.101593,127.927460 138.347992,127.449280 
	C137.885696,121.202034 137.746033,115.476654 137.606369,109.751282 
z"/>
<path fill="#F5EEFA" opacity="1.000000" stroke="none" 
	d="
M93.352753,98.090973 
	C93.030144,97.892319 92.988960,97.492226 92.965294,97.292381 
	C93.900223,97.382690 95.700279,97.718437 95.687416,97.955963 
	C95.557007,100.363098 95.130531,102.754189 94.787086,105.149780 
	C93.314392,104.932281 91.841698,104.714775 90.166214,104.201447 
	C92.230232,102.714073 95.287956,102.045296 93.352753,98.090973 
z"/>
<path fill="#F9F7FC" opacity="1.000000" stroke="none" 
	d="
M133.226379,117.140060 
	C132.688553,113.268776 132.394241,109.550812 132.070679,105.422562 
	C132.856613,105.073868 133.671799,105.135460 134.732605,105.104568 
	C134.985352,109.360962 134.992477,113.709831 134.984192,118.521072 
	C134.469147,118.420082 133.969528,117.856728 133.226379,117.140060 
z"/>
<path fill="#9049B3" opacity="1.000000" stroke="none" 
	d="
M146.090057,116.329025 
	C146.474258,115.930870 146.817490,115.994934 147.314789,116.129944 
	C147.558380,119.260559 147.797607,122.327660 147.646317,125.375381 
	C147.600845,126.291656 146.468353,127.153969 145.424805,127.973869 
	C145.360229,124.201576 145.704651,120.496407 146.090057,116.329025 
z"/>
<path fill="#7C38C4" opacity="1.000000" stroke="none" 
	d="
M68.025169,127.908615 
	C68.167465,127.534355 68.366112,127.301468 68.851349,127.030876 
	C76.767494,126.950531 84.472893,126.972572 92.656708,127.014938 
	C87.060310,127.376411 80.985489,127.717575 74.446259,128.132324 
	C73.229080,128.166321 72.476311,128.126740 70.980682,128.073578 
	C69.488708,128.087631 68.739609,128.115234 67.990501,128.142838 
	C67.990501,128.142838 68.005661,127.985306 68.025169,127.908615 
z"/>
<path fill="#7C38C4" opacity="1.000000" stroke="none" 
	d="
M191.091385,98.066078 
	C191.055664,97.898964 191.019928,97.731850 190.996109,97.308685 
	C196.203613,96.535645 201.229507,96.444435 203.948685,102.614227 
	C203.972397,103.027870 203.789444,103.201988 203.464386,103.096802 
	C199.715866,99.900482 196.423645,96.488289 191.091385,98.066078 
z"/>
<path fill="#29235C" opacity="1.000000" stroke="none" 
	d="
M160.970200,85.016342 
	C160.759308,86.080284 160.548416,87.144226 160.189423,88.504356 
	C159.138809,88.710052 158.236282,88.619553 156.860886,88.313995 
	C156.388031,88.098938 156.082291,88.008202 156.082291,88.008202 
	C156.082291,88.008202 156.024399,88.035866 156.003571,88.011246 
	C155.983353,87.048073 155.983978,86.109535 156.336670,84.727577 
	C158.115906,84.528229 159.543045,84.772285 160.970200,85.016342 
z"/>
<path fill="#6197EB" opacity="1.000000" stroke="none" 
	d="
M137.392944,110.121330 
	C137.746033,115.476654 137.885696,121.202034 138.028015,127.384193 
	C138.030670,127.840981 137.546585,127.948097 137.299011,127.928596 
	C137.094116,122.103188 137.136810,116.297287 137.392944,110.121330 
z"/>
<path fill="#7C38C4" opacity="1.000000" stroke="none" 
	d="
M240.425018,97.964020 
	C239.977081,97.946350 239.978058,97.547470 239.974457,97.348076 
	C244.143860,97.573013 248.316864,97.997353 252.738617,98.713364 
	C248.949234,98.663918 244.911087,98.322800 240.425018,97.964020 
z"/>
<path fill="#F5EEFA" opacity="1.000000" stroke="none" 
	d="
M80.012146,108.440079 
	C79.167877,108.171707 77.679604,107.561844 77.628273,106.848557 
	C77.564598,105.963928 78.690895,104.993652 79.660637,104.119522 
	C80.013947,105.470024 80.009796,106.761360 80.012146,108.440079 
z"/>
<path fill="#7C38C4" opacity="1.000000" stroke="none" 
	d="
M204.064056,102.941010 
	C205.746811,104.646004 207.337906,106.437866 208.951797,108.628136 
	C208.974594,109.026543 208.792053,109.206779 208.468445,109.106499 
	C206.693054,107.071472 205.241241,105.136734 203.789444,103.201988 
	C203.789444,103.201988 203.972397,103.027870 204.064056,102.941010 
z"/>
<path fill="#7C38C4" opacity="1.000000" stroke="none" 
	d="
M256.851929,101.444405 
	C256.959351,101.950905 256.934753,102.180046 256.832581,102.747055 
	C255.516449,101.952438 254.277939,100.819962 253.018372,99.349159 
	C254.238174,99.729561 255.479034,100.448303 256.851929,101.444405 
z"/>
<path fill="#6197EB" opacity="1.000000" stroke="none" 
	d="
M137.821869,97.117065 
	C138.008499,99.905075 137.952560,102.637711 137.753906,105.820450 
	C137.403885,103.492546 137.196594,100.714516 137.035553,97.505905 
	C137.081833,97.075317 137.579285,97.061684 137.821869,97.117065 
z"/>
<path fill="#7C38C4" opacity="1.000000" stroke="none" 
	d="
M210.757385,110.066765 
	C211.010361,110.582718 211.004547,110.959908 210.714081,111.513290 
	C209.883636,110.861916 209.337845,110.034348 208.792053,109.206779 
	C208.792053,109.206779 208.974594,109.026543 209.066284,108.936516 
	C209.604843,109.206993 210.051727,109.567497 210.757385,110.066765 
z"/>
<path fill="#A13B9C" opacity="1.000000" stroke="none" 
	d="
M251.299911,126.886818 
	C251.823471,126.263908 252.670670,125.668846 253.843338,125.128174 
	C253.320389,125.759926 252.471970,126.337296 251.299911,126.886818 
z"/>
<path fill="#A13B9C" opacity="1.000000" stroke="none" 
	d="
M254.449203,125.222672 
	C254.864899,124.474510 255.613235,123.727997 256.701843,122.997864 
	C256.288696,123.750946 255.535263,124.487633 254.449203,125.222672 
z"/>
<path fill="#F5EEFA" opacity="1.000000" stroke="none" 
	d="
M68.185432,128.360565 
	C68.739609,128.115234 69.488708,128.087631 70.607025,128.130707 
	C70.110939,128.327026 69.245651,128.452652 68.185432,128.360565 
z"/>
<path fill="#A13B9C" opacity="1.000000" stroke="none" 
	d="
M124.533852,126.351074 
	C124.911270,125.898674 125.619446,125.428207 126.686302,124.979797 
	C126.318192,125.445572 125.591400,125.889282 124.533852,126.351074 
z"/>
<path fill="#A13B9C" opacity="1.000000" stroke="none" 
	d="
M127.299728,124.982719 
	C127.457741,124.370605 127.922897,123.703461 128.726181,123.037659 
	C128.578491,123.668564 128.092697,124.298126 127.299728,124.982719 
z"/>
<path fill="#A13B9C" opacity="1.000000" stroke="none" 
	d="
M126.869087,99.756454 
	C126.455383,99.819084 125.869446,99.625427 125.130630,99.149582 
	C125.550781,99.078323 126.123817,99.289246 126.869087,99.756454 
z"/>
<path fill="#231E51" opacity="1.000000" stroke="none" 
	d="
M156.140381,88.106506 
	C156.082291,88.008202 156.388031,88.098938 156.466125,88.085403 
	C156.544205,88.071877 156.198471,88.204819 156.140381,88.106506 
z"/>
<path fill="#A13B9C" opacity="1.000000" stroke="none" 
	d="
M123.309357,126.899902 
	C123.184067,126.538033 123.423058,126.325867 124.021347,126.264465 
	C124.035080,126.502998 123.799408,126.714455 123.309357,126.899902 
z"/>
<path fill="#7BBDFA" opacity="1.000000" stroke="none" 
	d="
M283.874268,97.073227 
	C283.952545,97.337997 283.733002,97.610054 283.265137,97.964722 
	C283.203339,97.725067 283.389893,97.402786 283.874268,97.073227 
z"/>
<path fill="#A13B9C" opacity="1.000000" stroke="none" 
	d="
M128.020615,100.694519 
	C127.772499,100.807045 127.463860,100.643982 127.063477,100.226624 
	C127.301193,100.121208 127.630646,100.270065 128.020615,100.694519 
z"/>
<path fill="#6242DE" opacity="1.000000" stroke="none" 
	d="
M156.285614,108.378014 
	C156.082642,108.447586 155.870041,108.344467 155.813843,108.142433 
	C155.970230,108.043526 156.275986,108.205322 156.285614,108.378014 
z"/>
<path fill="#6041EA" opacity="1.000000" stroke="none" 
	d="
M172.957779,46.798897 
	C173.073059,46.263920 173.188339,45.728943 173.883850,45.207840 
	C176.300537,46.834869 178.159195,48.423664 179.966263,50.069115 
	C181.338394,51.318535 182.644897,52.640045 183.980606,53.929474 
	C186.623840,58.036880 189.267075,62.144291 191.569916,66.575829 
	C188.712494,66.612450 186.195465,66.324944 183.426025,65.880508 
	C182.127243,64.463173 181.080856,63.202766 179.900543,61.649063 
	C178.393219,59.979050 178.595398,56.328728 174.990112,57.714363 
	C172.780487,56.214268 170.630295,55.086723 168.480103,53.959175 
	C168.780563,53.413334 169.081039,52.867493 169.912827,52.008541 
	C170.638947,51.133720 170.833740,50.572010 171.028519,50.010300 
	C171.068527,49.825840 171.108536,49.641380 171.593872,49.134949 
	C172.345383,48.141624 172.651581,47.470261 172.957779,46.798897 
z"/>
<path fill="#7C4FF4" opacity="1.000000" stroke="none" 
	d="
M168.266754,54.188461 
	C170.630295,55.086723 172.780487,56.214268 174.923767,58.055248 
	C172.827911,62.489506 170.738953,66.210335 168.413971,70.084648 
	C167.530991,70.908859 166.884064,71.579575 166.016617,71.961105 
	C164.663193,71.802994 163.531036,72.030045 162.397156,72.039078 
	C161.179398,72.048790 159.960007,71.853722 158.741318,71.748016 
	C161.845352,65.971260 164.949387,60.194500 168.266754,54.188461 
z"/>
<path fill="#7C4FF4" opacity="1.000000" stroke="none" 
	d="
M183.678421,66.037445 
	C186.195465,66.324944 188.712494,66.612450 191.643005,66.921616 
	C192.056458,66.943283 192.029602,66.970276 192.047577,67.272186 
	C192.413483,68.042755 192.761429,68.511414 193.109375,68.980072 
	C193.109375,68.980064 193.031998,68.968651 193.042358,69.168251 
	C193.357452,69.609489 193.662170,69.851120 193.966904,70.092751 
	C195.361176,72.481804 196.755463,74.870865 197.811646,77.621109 
	C195.981491,78.294876 194.489426,78.607445 192.632523,78.916733 
	C191.551208,78.776688 190.834763,78.639938 190.081909,78.276825 
	C190.045517,78.050453 189.955948,77.599037 189.742371,77.361275 
	C187.722244,74.407150 185.915680,71.690788 184.065948,68.605896 
	C183.908005,67.504051 183.793213,66.770752 183.678421,66.037445 
z"/>
<path fill="#6242DE" opacity="1.000000" stroke="none" 
	d="
M198.530304,84.156853 
	C195.376755,84.493805 192.638535,84.766014 189.156494,84.989555 
	C187.920151,84.556686 187.427612,84.172493 187.082428,83.496429 
	C189.120972,82.108047 191.012161,81.011536 193.297058,79.972107 
	C195.489609,79.658096 197.288452,79.287010 199.087280,78.915909 
	C200.486374,78.922005 201.885483,78.928108 203.701660,79.007965 
	C205.511292,79.561165 206.903839,80.040611 208.719421,80.665695 
	C207.302094,81.582291 206.186096,82.304008 204.932632,83.305801 
	C202.845306,83.754631 200.895477,83.923378 198.530304,84.156853 
z"/>
<path fill="#6242DE" opacity="1.000000" stroke="none" 
	d="
M161.407288,84.980316 
	C159.543045,84.772285 158.115906,84.528229 156.338654,84.375587 
	C155.243134,84.363243 154.497681,84.259476 153.017426,84.092773 
	C151.536713,83.872772 150.790833,83.715706 149.952087,83.258911 
	C149.009125,82.354820 148.159027,81.750465 147.066925,80.974052 
	C148.204102,80.244720 149.089615,79.676788 149.975113,79.108856 
	C151.317856,79.053917 152.660614,78.998985 154.789093,78.954117 
	C157.690674,78.975090 159.806519,78.986008 162.034515,79.317780 
	C164.447586,81.407341 166.748505,83.176048 168.776428,84.978088 
	C168.321426,85.033501 168.139420,85.055573 167.957413,85.077637 
	C165.919739,85.033188 163.882065,84.988747 161.407288,84.980316 
z"/>
<path fill="#A071F6" opacity="1.000000" stroke="none" 
	d="
M161.922379,78.996925 
	C159.806519,78.986008 157.690674,78.975090 155.190277,78.908188 
	C155.940033,76.622490 157.074341,74.392769 158.474976,71.955528 
	C159.960007,71.853722 161.179398,72.048790 162.397156,72.039078 
	C163.531036,72.030045 164.663193,71.802994 165.908875,72.278717 
	C165.379929,74.763557 164.738205,76.641609 163.751328,78.662338 
	C162.911591,78.868980 162.416977,78.932953 161.922379,78.996925 
z"/>
<path fill="#5239C8" opacity="1.000000" stroke="none" 
	d="
M184.047546,53.566540 
	C182.644897,52.640045 181.338394,51.318535 179.966263,50.069115 
	C178.159195,48.423664 176.300537,46.834869 174.135849,45.084743 
	C174.529282,43.206173 175.250946,41.464577 175.972610,39.722980 
	C176.444321,39.781631 176.916046,39.840282 177.387756,39.898933 
	C179.630005,44.333824 181.872238,48.768715 184.047546,53.566540 
z"/>
<path fill="#5239C8" opacity="1.000000" stroke="none" 
	d="
M149.589447,79.012314 
	C149.089615,79.676788 148.204102,80.244720 147.066925,80.974052 
	C148.159027,81.750465 149.009125,82.354820 149.596588,83.349487 
	C147.888153,83.544525 146.442337,83.349251 144.996521,83.153976 
	C143.322922,83.041328 141.649338,82.928680 139.527954,82.612198 
	C139.080185,82.408363 139.021255,82.032089 139.021255,82.032089 
	C140.351562,80.880287 141.681885,79.728493 143.099335,78.240944 
	C145.192230,78.242050 147.197998,78.578911 149.589447,79.012314 
z"/>
<path fill="#A071F6" opacity="1.000000" stroke="none" 
	d="
M198.996490,78.722260 
	C197.288452,79.287010 195.489609,79.658096 193.343323,79.725548 
	C192.996353,79.254616 192.996872,79.087318 192.997375,78.920021 
	C194.489426,78.607445 195.981491,78.294876 197.885010,77.975235 
	C198.591278,78.055237 198.794357,78.242050 198.996490,78.722260 
z"/>
<path fill="#5239C8" opacity="1.000000" stroke="none" 
	d="
M172.713409,46.930607 
	C172.651581,47.470261 172.345383,48.141624 171.753082,48.900837 
	C171.801010,48.346565 172.135040,47.704441 172.713409,46.930607 
z"/>
<path fill="#6041EA" opacity="1.000000" stroke="none" 
	d="
M193.090317,68.671921 
	C192.761429,68.511414 192.413483,68.042755 192.053497,67.263687 
	C192.384720,67.423447 192.727982,67.893600 193.090317,68.671921 
z"/>
<path fill="#6041EA" opacity="1.000000" stroke="none" 
	d="
M193.905273,69.833466 
	C193.662170,69.851120 193.357452,69.609489 193.059692,69.133194 
	C193.325653,69.123749 193.584656,69.348961 193.905273,69.833466 
z"/>
<path fill="#5239C8" opacity="1.000000" stroke="none" 
	d="
M170.754379,50.148079 
	C170.833740,50.572010 170.638947,51.133720 170.177460,51.841797 
	C170.100586,51.420727 170.290405,50.853291 170.754379,50.148079 
z"/>
<path fill="#F5EEFA" opacity="1.000000" stroke="none" 
	d="
M116.881638,120.972015 
	C108.884125,120.569801 108.641701,116.238907 109.078674,109.911552 
	C109.375488,105.613586 113.319267,103.583244 118.702332,105.148499 
	C119.822098,106.312248 120.433540,107.107277 121.044991,107.902298 
	C121.044991,107.902298 121.011803,107.968170 121.037964,108.425980 
	C121.077927,111.600075 121.091743,114.316376 121.105560,117.032669 
	C121.105553,117.032669 121.028114,117.054031 120.804260,117.293694 
	C119.347481,118.679573 118.114555,119.825790 116.881638,120.972015 
z"/>
<path fill="#615ADC" opacity="1.000000" stroke="none" 
	d="
M121.483643,116.939377 
	C121.091743,114.316376 121.077927,111.600075 121.074432,108.431458 
	C124.538269,110.654861 123.215431,113.749130 121.483643,116.939377 
z"/>
<path fill="#615ADC" opacity="1.000000" stroke="none" 
	d="
M117.264435,120.994247 
	C118.114555,119.825790 119.347481,118.679573 120.821915,117.329758 
	C119.924706,118.422935 118.785973,119.719704 117.264435,120.994247 
z"/>
<path fill="#615ADC" opacity="1.000000" stroke="none" 
	d="
M121.062042,107.545288 
	C120.433540,107.107277 119.822098,106.312248 119.056839,105.250198 
	C119.628387,105.718216 120.353737,106.453247 121.062042,107.545288 
z"/>
<path fill="#EDEBFD" opacity="1.000000" stroke="none" 
	d="
M312.451233,115.129433 
	C311.251923,116.521362 309.958862,117.554283 308.665802,118.587204 
	C308.086853,118.206909 307.507874,117.826622 306.928894,117.446335 
	C307.683136,114.414024 308.437378,111.381714 309.191620,108.349411 
	C309.615875,108.416534 310.040131,108.483665 310.464386,108.550789 
	C311.095428,110.624008 311.726440,112.697220 312.451233,115.129433 
z"/>
<path fill="#F0EFF7" opacity="1.000000" stroke="none" 
	d="
M237.069351,109.536362 
	C239.367599,104.520866 242.284409,102.984009 245.713928,104.675568 
	C249.398499,106.492928 250.916855,113.844872 248.269073,117.948051 
	C246.122025,121.275261 243.150818,121.847580 239.728302,119.783218 
	C235.691055,117.348099 237.488235,113.298637 237.069351,109.536362 
z"/>
<path fill="#5239C8" opacity="1.000000" stroke="none" 
	d="
M167.978836,85.432556 
	C168.139420,85.055573 168.321426,85.033501 169.194824,84.999435 
	C175.569153,84.587730 181.252121,84.188011 186.935089,83.788300 
	C187.427612,84.172493 187.920151,84.556686 188.739548,84.995316 
	C189.127838,88.942375 185.824417,88.593559 183.253876,89.733727 
	C178.953171,89.823990 174.892227,89.651337 170.498413,89.338272 
	C169.443787,88.061066 168.722015,86.924271 167.978836,85.432556 
z"/>
<path fill="#29235C" opacity="1.000000" stroke="none" 
	d="
M138.574432,82.046822 
	C139.021255,82.032089 139.080185,82.408363 139.109192,82.595459 
	C136.486603,82.799988 133.835022,82.817413 131.092010,82.467758 
	C133.376266,82.087639 135.751938,82.074593 138.574432,82.046822 
z"/>
<path fill="#29235C" opacity="1.000000" stroke="none" 
	d="
M145.079575,83.500000 
	C146.442337,83.349251 147.888153,83.544525 149.689453,83.649223 
	C150.790833,83.715706 151.536713,83.872772 152.643005,84.154968 
	C150.179337,87.937416 147.742294,84.603447 145.079575,83.500000 
z"/>
<path fill="#7B24E9" opacity="1.000000" stroke="none" 
	d="
M208.468445,109.106499 
	C209.337845,110.034348 209.883636,110.861916 210.717407,111.797791 
	C211.655472,110.648735 212.744980,109.432602 212.867615,108.125740 
	C213.155930,105.053268 212.982376,101.937454 213.047089,98.365173 
	C220.052490,97.975800 220.054337,97.975800 220.056549,104.846146 
	C220.058823,111.939148 220.057037,119.032143 220.057037,126.073235 
	C214.378281,128.781006 211.413483,125.379395 208.432297,121.952049 
	C206.491287,119.720528 204.494263,117.537704 202.220520,115.178848 
	C200.637085,115.623985 199.232574,116.063507 198.137421,116.905449 
	C197.728989,117.219467 198.217026,118.523735 197.995209,119.289253 
	C197.326157,121.598503 200.024841,125.452782 195.372009,125.946854 
	C189.963882,126.521118 192.937149,121.717781 191.353180,119.357391 
	C191.051331,112.383179 191.018311,105.683762 191.038330,98.525208 
	C196.423645,96.488289 199.715866,99.900482 203.464386,103.096802 
	C205.241241,105.136734 206.693054,107.071472 208.468445,109.106499 
z"/>
<path fill="#3925AF" opacity="1.000000" stroke="none" 
	d="
M164.096466,78.519669 
	C164.738205,76.641609 165.379929,74.763557 166.129395,72.567886 
	C166.884064,71.579575 167.530991,70.908859 168.831192,70.103973 
	C171.596542,68.975685 173.929260,68.275154 175.756424,66.901932 
	C177.461716,65.620331 178.629883,63.624062 180.034470,61.942360 
	C181.080856,63.202766 182.127243,64.463173 183.426025,65.880508 
	C183.793213,66.770752 183.908005,67.504051 183.708191,68.750244 
	C181.674454,69.776497 179.977432,70.387329 178.231674,70.783234 
	C174.432465,71.644806 172.008911,73.643654 171.638428,77.868088 
	C170.162201,78.125313 169.037689,78.333603 167.532776,78.559814 
	C166.133743,78.558388 165.115112,78.539032 164.096466,78.519669 
z"/>
<path fill="#2E1B95" opacity="1.000000" stroke="none" 
	d="
M179.900543,61.649063 
	C178.629883,63.624062 177.461716,65.620331 175.756424,66.901932 
	C173.929260,68.275154 171.596542,68.975685 169.067230,69.950470 
	C170.738953,66.210335 172.827911,62.489506 174.983215,58.427795 
	C178.595398,56.328728 178.393219,59.979050 179.900543,61.649063 
z"/>
<path fill="#F9F7FC" opacity="1.000000" stroke="none" 
	d="
M163.751328,78.662338 
	C165.115112,78.539032 166.133743,78.558388 167.981812,78.715965 
	C175.913605,78.737183 183.015945,78.620186 190.118301,78.503189 
	C190.834763,78.639938 191.551208,78.776688 192.632523,78.916733 
	C192.996872,79.087318 192.996353,79.254616 192.949600,79.668465 
	C191.012161,81.011536 189.120972,82.108047 187.082428,83.496429 
	C181.252121,84.188011 175.569153,84.587730 169.467804,84.966095 
	C166.748505,83.176048 164.447586,81.407341 162.034515,79.317780 
	C162.416977,78.932953 162.911591,78.868980 163.751328,78.662338 
z"/>
<path fill="#4E32DC" opacity="1.000000" stroke="none" 
	d="
M171.990143,77.819145 
	C172.008911,73.643654 174.432465,71.644806 178.231674,70.783234 
	C179.977432,70.387329 181.674454,69.776497 183.751343,69.118782 
	C185.915680,71.690788 187.722244,74.407150 189.285583,77.464203 
	C183.358292,77.809639 177.674210,77.814392 171.990143,77.819145 
z"/>
<path fill="#A071F6" opacity="1.000000" stroke="none" 
	d="
M171.638428,77.868088 
	C177.674210,77.814392 183.358292,77.809639 189.499146,77.701965 
	C189.955948,77.599037 190.045517,78.050453 190.081909,78.276825 
	C183.015945,78.620186 175.913605,78.737183 168.362213,78.698044 
	C169.037689,78.333603 170.162201,78.125313 171.638428,77.868088 
z"/>
</svg>